**ABCDEFGHIJKLMNOPQRSTUVWXYZabcdefghijklmnopqrstuvwxyz**************************
**PARASOLID !"#$%&'()*+,-./:;<=>?@[\]^_`{|}~0123456789**************************
**PART1;
MC=AMD64;
MC_MODEL=Intel64 Family 6 Model 58 Stepping 9, GenuineIntel;
MC_ID=unknown;
OS=Windows_NT;
OS_RELEASE=unknown;
FRU=Parasolid Version 25.1, build 229,  2- 4-2014;
APPL=SolidWorks 2014-2014089;
SITE=;
USER=unknown;
FORMAT=text;
GUISE=transmit;
KEY=Grease Nipple M6;
FILE=Grease Nipple M6.x_t;
DATE=Mon Nov 30 13:36:30 2015;
**PART2;
SCH=SCH_2501229_25001;
USFLD_SIZE=0;
**PART3;
**END_OF_HEADER*****************************************************************
T51 : TRANSMIT FILE created by modeller version 250122923 SCH_2501229_25001_1300
6189 0 12 29 CCCCCCCCCCCCCDI5 owner1040 0 CCCCCCCCCA16 index_map_offset0 0 1 dA9
 index_map82 0 A17 node_id_index_map82 0 A20 schema_embedding_map82 0 A5 child12
 0 A14 lowest_node_id0 0 1 dZ1 34149 0 2 0 0 0 0 1e3 1e-8 0 3 0 1 0 1 1 4 5 6 7
 8 9 10 0 0 0 0 0 0 70 11 CI9 list_type0 0 1 uI10 notransmit0 0 1 lCCCDCCDI12 fi
nger_index0 0 1 dI12 finger_block1012 0 CZ2 0 4 T1 0 0 2 20 1 11 11 13 255 4 75
 0 1 0 12 0 0 13 0 50 255 5 164 0 14 15 0 0 +0 0 0 2302735998102075e-33 -1 0 1 2
302735998102075e-33 0 38 255 6 318 0 9 16 0 0 +17 18 19 20 21 29 255 7 249 0 10
 22 0 .0035 .00547905619136139 .00202072594216369 19 8 CCCCCCCA5 owner12 0 Z8 79
 0 1 13 0 23 V0 16 255 9 316 0 ?24 0 25 6 0 0 1 18 255 10 248 0 26 0 27 7 ?1 17
 255 26 0 28 29 30 10 31 32 0 33 +18 27 245 0 34 10 35 22 ?1 17 34 0 28 30 29 27
 36 37 0 24 -18 35 448 0 38 27 39 40 ?1 29 22 247 0 27 40 7 .0035 .0065415114453
8329 -.00202072594216369 29 40 627 0 35 41 22 3286309222738875e-33 .005479056191
36139 -.00404145188432738 29 41 628 0 39 42 40 3286309222738875e-33 .00654151144
538329 -.00404145188432738 18 39 475 0 43 35 44 41 ?1 29 42 629 0 44 45 41 -.003
5 .00547905619136139 -.00202072594216369 18 44 452 0 46 39 47 42 ?1 29 45 630 0
 47 48 42 -.0035 .00654151144538329 -.00202072594216369 18 47 476 0 49 44 50 45
 ?1 29 48 631 0 50 51 45 .0035 .00547905619136139 -.00202072594216369 18 50 474
 0 29 47 52 48 ?1 29 51 634 0 52 53 48 .0035 .00654151144538329 .002020725942163
69 18 52 479 0 30 50 54 51 ?1 29 53 635 0 54 55 51 0 .00547905619136139 .0040414
5188432738 18 54 478 0 56 52 57 53 ?1 29 55 636 0 57 58 53 0 .00654151144538329
 .00404145188432738 18 57 460 0 59 54 60 55 ?1 29 58 637 0 60 61 55 -.0035 .0054
7905619136139 .00202072594216369 18 60 455 0 62 57 63 58 ?1 29 61 638 0 63 0 58
 -.0035 .00654151144538329 .00202072594216369 18 63 477 0 64 60 0 61 ?1 17 64 0
 65 66 67 63 68 69 0 70 +15 255 65 567 0 56 71 0 17 66 0 65 56 64 60 70 72 0 73
 +17 67 0 65 64 56 57 74 75 0 68 -17 68 0 76 77 78 57 64 69 0 0 -16 69 384 0 ?64
 79 80 81 0 0 1 17 70 0 82 49 62 63 66 72 0 78 -15 82 563 0 62 83 0 17 49 0 82 8
4 70 47 78 85 0 86 +17 62 0 82 70 84 60 87 88 0 66 +16 72 444 0 ?66 89 75 90 0 0
 1 17 78 0 76 68 91 63 49 85 0 0 -15 76 317 0 92 12 93 17 91 0 76 78 92 47 43 25
 0 0 -16 85 306 0 ?49 25 94 95 0 0 1 16 25 311 0 ?43 9 85 16 0 0 1 16 94 297 0 ?
59 85 96 97 0 0 1 38 95 308 0 85 97 16 0 +17 98 99 100 100 38 97 299 0 94 101 95
 0 +17 102 103 104 105 38 16 313 0 25 95 6 0 +17 106 107 108 109 54 255 17 158 0
 12 110 111 112 -0 .00985255234989592 0 2302735998102075e-33 -1 0 .0062857798747
6108 .004 1 2302735998102075e-33 0 50 98 586 0 83 113 106 114 +-.0035 .0132 -.00
202072594216369 1 0 0 0 0 -1 40 255 29 99 0 1 29 .000749181788563873 .3803764135
051485 ??-.0035 .00698211153194197 0 -.0035 .00673890297334068 -.001413811530596
342 -.0035 .00594851466276578 -.00413168022797714 -.0035 .00590553612792232 -.00
598662648092831 -.0035 .00637091837621172 -.00747640883570376 -.0035 .0073317472
7161821 -.00871495301722221 -.0035 .00853476829174286 -.0094341641937024 -.0035
 .00982027023932181 -.00967184510904907 -.0035 .0110729635211236 -.0094689063453
9784 -.0035 .01218804681763954 -.00886741811935351 -.0035 .01307304241052252 -.0
0791925943514904 -.0035 .0136497526907131 -.00668212924510377 -.0035 .0138525308
6837328 -.00520541997434234 -.0035 .01343963278690942 -.00285348653305417 -.0035
 .01274790578533514 -.000426593004606677 -.0035 .01289858401279674 .001178733154
28977 -.0035 .01374039375726636 .004039946841568135 -.0035 .01381106879440644 .0
0590038997631228 -.0035 .01336738059264844 .0074102442779248 -.0035 .01241869007
882888 .00867469019914622 -.0035 .011221410436268 .00941473871628749 -.0035 .009
93691598937924 .00967103742310012 -.0035 .00868079138134375 .00948515810964297 -
.0035 .00755825722543374 .0088988430418433 -.0035 .00666234438907775 .0079635912
9604663 -.0035 .00607182740295111 .0067370563645127 -.0035 .00585275364053381 .0
0526945109908725 -.0035 .00623292974337809 .002959209863225835 -.0035 .006982111
53194196 -563763188726714e-33 41 255 1 100 H-.0035 .00698211153194196 -563763188
726714e-33 14 255 83 560 115 ?71 116 82 4 98 -0 0 71 116 23 50 113 587 0 71 102
 98 117 +-.0035 .0132 .00202072594216369 .5 0 -.866025403784439 -.86602540378443
9 0 -.5 50 106 585 0 116 98 18 118 +3286309222738875e-33 .0132 -.004041451884327
38 .5 0 .866025403784439 .866025403784439 0 -.5 141 255 114 95 119 119 98 141 11
9 120 114 114 98 38 120 592 0 88 121 122 0 +111 98 123 124 125 16 88 360 0 ?62 1
26 127 120 0 0 1 38 121 593 0 127 128 120 0 +111 102 129 130 131 38 122 591 0 12
6 120 132 0 +111 106 133 134 135 52 255 111 160 0 136 17 137 138 +-1197422719013
08e-34 .0052 0 -2302735998102075e-33 1 0 .003 .965925826289068 .2588190451025215
 -1 -2302735998102075e-33 0 40 4 123 0 1 4 .000528109912278164 .256127816518327
 ??-.0035 .00610535318721684 -.00533286009713914 -.0035 .00541724148460302 -.001
507270134471095 -.0035 .00553382659654802 .002403603257852455 -.0035 .0071261557
4089555 .0095684773186056 41 1 124 L-.0035 .00610535318721684 -.0053328600971391
4 41 1 125 L-.0035 .00712615574089555 .0095684773186056 14 136 126 139 ?0 140 14
1 4 111 +0 0 0 140 23 51 255 137 161 0 140 111 142 0 +0 0 0 2302735998102075e-33
 -1 0 .003 1 2302735998102075e-33 0 141 138 143 144 145 111 38 143 595 0 79 81 1
28 0 +111 113 146 147 148 141 144 132 149 138 111 141 145 128 138 150 111 38 128
 594 0 151 143 121 0 -152 111 153 154 155 141 150 121 145 156 111 141 156 120 15
0 149 111 141 149 122 156 144 111 16 151 374 0 ?29 127 79 128 0 0 1 50 152 589 0
 157 0 102 158 +.0035 .0132 .00202072594216369 -1 0 -107308185624083e-30 -107308
185624083e-30 0 1 40 4 153 0 1 4 .000528109912278228 .256127816518355 ??.0035 .0
061053531872171 -.00533286009714027 .0035 .00541724148460311 -.00150727013447192
5 .0035 .00553382659654794 .002403603257851965 .0035 .00712615574089543 .0095684
7731860513 41 1 154 L.0035 .0061053531872171 -.00533286009714027 41 1 155 L.0035
 .00712615574089543 .00956847731860513 14 157 572 159 ?14 160 28 4 152 -0 0 14 1
60 23 50 102 588 0 160 152 113 161 +0 .0132 .00404145188432738 -.5 0 -.866025403
784439 -.866025403784439 0 .5 141 158 101 162 162 152 38 101 294 0 96 163 97 0 +
17 152 164 165 165 141 162 128 158 158 152 16 96 292 0 ?30 94 166 101 0 0 1 31 2
55 163 176 0 166 167 101 0 +127764452595321e-52 -554837604921385e-35 0 230273599
8102075e-33 -1 0 1 2302735998102075e-33 0 .002409471191568135 40 29 164 0 1 29 .
000749181788563868 .380376413505148 ??.0035 .00698211153194197 3911198701630385e
-35 .0035 .00673890297334068 .001413811530596344 .0035 .00594851466276578 .00413
1680227977145 .0035 .00590553612792232 .00598662648092831 .0035 .006370918376211
72 .00747640883570376 .0035 .00733174727161821 .0087149530172222 .0035 .00853476
829174285 .0094341641937024 .0035 .00982027023932181 .00967184510904907 .0035 .0
110729635211236 .00946890634539784 .0035 .01218804681763952 .00886741811935352 .
0035 .01307304241052252 .00791925943514904 .0035 .0136497526907131 .006682129245
10377 .0035 .01385253086837328 .00520541997434235 .0035 .01343963278690942 .0028
53486533054175 .0035 .01274790578533514 .000426593004606683 .0035 .0128985840127
9672 -.00117873315428976 .0035 .01374039375726638 -.004039946841568155 .0035 .01
381106879440644 -.00590038997631229 .0035 .01336738059264842 -.00741024427792481
 .0035 .01241869007882888 -.00867469019914623 .0035 .011221410436268 -.009414738
71628749 .0035 .00993691598937923 -.00967103742310012 .0035 .00868079138134374 -
.00948515810964297 .0035 .00755825722543374 -.00889884304184329 .0035 .006662344
38907774 -.00796359129604662 .0035 .00607182740295111 -.00673705636451269 .0035
 .00585275364053381 -.00526945109908724 .0035 .0062329297433781 -.00295920986322
582 .0035 .00698211153194197 1486192369270212e-34 41 1 165 H.0035 .0069821115319
4197 1486192369270212e-34 16 166 138 0 ?168 96 169 163 0 0 1 31 167 175 0 169 17
0 163 0 +-77661072361896e-35 .000337255649044895 0 2302735998102075e-33 -1 0 1 2
302735998102075e-33 0 .00274672684061303 16 169 133 0 ?171 166 172 167 0 0 1 31
 170 174 0 172 173 167 0 +-552656639544498e-35 .0024 0 2302735998102075e-33 -1 0
 1 2302735998102075e-33 0 .003 16 172 128 0 ?174 169 175 170 0 0 1 31 173 173 0
 175 176 170 0 +-119742271901308e-34 .0052 0 2302735998102075e-33 -1 0 1 2302735
998102075e-33 0 .003 16 175 123 0 ?177 172 178 173 0 0 1 31 176 170 0 178 179 17
3 0 +-186198998528551e-34 .00808598982610324 0 2302735998102075e-33 -1 0 1 23027
35998102075e-33 0 .002697011722660525 16 178 108 0 ?180 175 181 176 0 0 1 31 179
 169 0 181 182 176 0 +-204666801443533e-34 .00888798375550737 0 2302735998102075
e-33 -1 0 1 2302735998102075e-33 0 .002752432370980245 16 181 103 0 ?183 178 184
 179 0 0 1 31 182 168 0 184 185 179 0 +-2637220456625385e-35 .01145255234989592
 0 2302735998102075e-33 -1 0 1 2302735998102075e-33 0 .00325 16 184 98 0 ?186 18
1 187 182 0 0 1 31 185 167 0 187 188 182 0 +-303961151749474e-34 .0132 0 2302735
998102075e-33 -1 0 1 2302735998102075e-33 0 .00225 16 187 93 0 ?189 184 190 185
 0 0 1 31 188 166 0 190 191 185 0 +-303961151749474e-34 .0132 0 2302735998102075
e-33 -1 0 1 2302735998102075e-33 0 .000992845254479423 16 190 88 0 ?192 187 193
 188 0 0 1 31 191 165 0 193 132 188 0 +-292529849209301e-34 .0127035773727603 0
 2302735998102075e-33 -1 0 1 2302735998102075e-33 0 .000496422627239712 16 193 8
3 0 ?194 190 195 191 0 0 1 38 132 590 0 195 122 191 0 +111 18 196 197 198 16 195
 346 0 ?38 193 126 132 0 0 1 50 18 584 0 199 106 200 201 +.0035 .0132 -.00202072
594216369 -.5 0 .866025403784438 .866025403784438 0 .5 40 2 196 0 1 2 .000536763
547940367 .266385643243561 ??.0035002 .00547908713279504 -.00202061047210985 -19
9999999996315e-21 .00547908713279503 -.00404156735438122 41 1 197 L.0035002 .005
47908713279504 -.00202061047210985 41 1 198 L-199999999996315e-21 .0054790871327
9503 -.00404156735438122 14 199 552 202 ?116 203 204 4 18 -0 0 116 203 23 53 255
 200 152 0 203 18 205 0 +0 .0127035773727603 0 .000496422627239712 2302735998102
075e-33 -1 0 1 2302735998102075e-33 0 141 201 6 206 206 18 141 206 132 201 201 1
8 14 203 86 207 ?199 208 209 4 200 +0 0 199 208 23 54 205 153 0 208 200 210 0 +0
 .0127035773727603 0 2302735998102075e-33 -1 0 .000992845254479423 .000496422627
239711 1 2302735998102075e-33 0 14 208 91 211 ?203 212 213 4 205 +0 0 203 212 23
 50 210 154 0 212 205 214 0 +.000992845254479423 .0132 0 -2302735998102075e-33 1
 0 -1 -2302735998102075e-33 0 14 212 96 215 ?208 216 217 4 210 +0 0 208 216 23 5
2 214 155 0 216 210 218 0 +-2637220456625385e-35 .01145255234989592 0 2302735998
102075e-33 -1 0 .00325 .496684932292749 .86793091777707 1 2302735998102075e-33 0
 14 216 101 219 ?212 220 221 4 214 +0 0 212 220 23 53 218 156 0 220 214 110 0 +0
 .01075255234989592 0 .00332453004197586 2302735998102075e-33 -1 0 1 23027359981
02075e-33 0 14 220 106 222 ?216 223 224 4 218 +0 0 216 223 23 54 110 157 0 223 2
18 17 0 -0 .00843930233086177 0 2302735998102075e-33 -1 0 .003414765353080635 8e
-4 1 2302735998102075e-33 0 14 223 111 225 ?220 12 226 4 110 +0 0 220 12 23 81 2
55 1 225 34141 227 223 228 0 222 229 230 14 12 116 229 ?223 0 76 4 17 +0 0 223 0
 23 15 226 208 0 183 223 231 13 23 78 0 0 0 0 0 0 8 12 17 183 0 226 183 183 0 23
2 181 0 0 +15 231 110 0 233 223 0 17 233 0 231 233 233 0 180 178 0 0 -17 180 0 9
3 180 180 0 233 178 0 0 +15 93 209 0 180 12 0 17 232 0 234 232 232 0 183 181 0 0
 -15 234 105 0 232 220 0 81 1 229 34142 227 12 235 0 225 236 237 80 255 1 227 23
8 239 9000 1 1 1 1 1 1 1 1 0 FFFFTFTFFFFFFF1 81 1 235 34076 240 12 0 229 0 228 2
41 81 1 236 34143 227 116 242 0 229 243 244 82 255 1 237 89 14 116 556 236 ?83 1
99 245 4 106 -0 0 83 199 23 81 1 242 34084 240 116 0 236 246 247 248 81 1 243 34
144 227 71 249 0 236 250 251 82 1 244 94 14 71 564 243 ?160 83 65 4 113 -0 0 160
 83 23 81 1 249 34086 240 71 0 243 247 252 253 81 1 250 34145 227 160 252 0 243
 254 255 82 1 251 94 14 160 568 250 ?157 71 256 4 102 -0 0 157 71 23 81 1 252 34
087 240 160 0 250 249 257 258 81 1 254 34146 227 14 259 0 250 260 261 82 1 255 9
4 14 14 146 254 ?262 157 263 4 5 +0 0 262 157 23 81 1 259 34089 240 14 0 254 257
 264 265 81 1 260 34147 227 262 264 0 254 266 267 82 1 261 89 14 262 141 260 ?26
8 14 269 4 15 +0 0 268 14 23 81 1 264 34090 240 262 0 260 259 270 271 81 1 266 3
4148 227 268 270 0 260 272 273 82 1 267 89 14 268 136 266 ?140 262 274 4 142 +0
 0 140 262 23 81 1 270 34091 240 268 0 266 264 275 276 81 1 272 34149 227 140 27
5 0 266 0 277 82 1 273 89 14 140 131 272 ?136 268 278 4 137 +0 0 136 268 23 81 1
 275 34092 240 140 0 272 270 279 280 82 1 277 89 80 1 240 0 281 8001 0 0 0 0 3 5
 0 0 0 FFFFTFTFFFFFFF2 81 1 279 34093 240 136 0 139 275 0 282 83 255 3 280 .7529
41176470588 .752941176470588 .752941176470588 81 1 139 34133 227 136 279 0 115 1
59 283 83 3 282 .752941176470588 .752941176470588 .752941176470588 81 1 115 3413
2 227 83 247 0 0 139 284 81 1 159 34134 227 157 257 0 139 202 285 82 1 283 89 81
 1 257 34088 240 157 0 159 252 259 286 81 1 202 34135 227 199 246 0 159 207 287
 82 1 285 94 81 1 246 34083 240 199 0 202 288 242 289 81 1 207 34136 227 203 288
 0 202 211 290 82 1 287 94 81 1 288 34082 240 203 0 207 291 246 292 81 1 211 341
37 227 208 291 0 207 215 293 82 1 290 89 81 1 291 34081 240 208 0 211 294 288 29
5 81 1 215 34138 227 212 294 0 211 219 296 82 1 293 89 81 1 294 34080 240 212 0
 215 297 291 298 81 1 219 34139 227 216 297 0 215 222 299 82 1 296 89 81 1 297 3
4079 240 216 0 219 300 294 301 81 1 222 34140 227 220 300 0 219 225 302 82 1 299
 89 81 1 300 34078 240 220 0 222 228 297 303 82 1 302 89 81 1 228 34077 240 223
 0 225 235 300 304 83 3 303 .752941176470588 .752941176470588 .752941176470588 8
3 3 304 .752941176470588 .752941176470588 .752941176470588 83 3 301 .75294117647
0588 .752941176470588 .752941176470588 83 3 298 .752941176470588 .75294117647058
8 .752941176470588 83 3 295 .752941176470588 .752941176470588 .752941176470588 8
3 3 292 .752941176470588 .752941176470588 .752941176470588 83 3 289 .75294117647
0588 .752941176470588 .752941176470588 83 3 286 .752941176470588 .75294117647058
8 .752941176470588 81 1 247 34085 240 83 0 115 242 249 305 82 1 284 94 83 3 305
 .752941176470588 .752941176470588 .752941176470588 79 255 15 281 SDL/TYSA_COLOU
R15 278 212 0 177 140 306 17 177 0 278 177 177 0 307 175 0 0 +15 306 130 0 308 1
40 0 17 308 0 306 308 308 0 174 172 0 0 -17 174 0 274 174 174 0 308 172 0 0 +15
 274 213 0 174 268 309 15 309 135 0 310 268 0 17 310 0 309 310 310 0 171 169 0 0
 -17 171 0 269 171 171 0 310 169 0 0 +15 269 214 0 171 262 311 15 311 140 0 312
 262 0 17 312 0 311 312 312 0 168 166 0 0 -17 168 0 263 168 168 0 312 166 0 0 +1
5 263 215 0 168 14 0 17 307 0 313 307 307 0 177 175 0 0 -15 313 125 0 307 136 0
 83 3 276 .752941176470588 .752941176470588 .752941176470588 52 142 162 0 268 13
7 15 0 +-77661072361896e-35 .000337255649044895 0 -2302735998102075e-33 1 0 .002
74672684061303 .1218693434051478 .992546151641322 -1 -2302735998102075e-33 0 52
 15 163 0 262 142 5 0 +127764452595321e-52 -554837604921385e-35 0 -2302735998102
075e-33 1 0 .002409471191568135 .707106781186546 .707106781186549 -1 -2302735998
102075e-33 0 83 3 271 .752941176470588 .752941176470588 .752941176470588 83 3 26
5 .752941176470588 .752941176470588 .752941176470588 83 3 258 .752941176470588 .
752941176470588 .752941176470588 15 256 571 0 33 160 0 17 33 0 256 31 74 10 314
 127 0 315 +17 31 0 256 59 33 52 26 32 0 77 -17 74 0 256 33 59 54 67 75 0 314 +1
7 314 0 141 73 315 54 33 127 0 0 -16 127 367 0 ?33 88 151 121 0 0 1 17 315 0 141
 314 316 10 29 151 0 0 -15 141 342 0 316 136 313 17 316 0 141 315 317 50 38 195
 0 0 -17 29 0 28 34 26 50 315 151 0 36 +15 28 575 0 29 157 0 17 36 0 204 38 24 5
0 34 37 0 316 +15 204 555 0 38 199 0 17 38 0 204 318 36 35 316 195 0 319 +17 24
 0 204 36 318 27 92 9 0 320 +16 37 447 0 ?36 32 0 321 0 0 1 16 32 446 0 ?26 75 3
7 322 0 0 1 30 255 321 614 0 37 0 322 0 +.0035 .0132 -.00202072594216369 0 -1 0
 30 322 613 0 32 321 323 0 +.0035 .0132 .00202072594216369 0 -1 0 30 323 612 0 7
5 322 90 0 +0 .0132 .00404145188432738 0 -1 0 16 75 445 0 ?74 72 32 323 0 0 1 30
 90 611 0 72 323 324 0 +-.0035 .0132 .00202072594216369 0 -1 0 30 324 610 0 89 9
0 325 0 +-.0035 .0132 -.00202072594216369 0 -1 0 16 89 443 0 ?84 80 72 324 0 0 1
 30 325 609 0 80 324 81 0 +3286309222738875e-33 .0132 -.00404145188432738 0 -1 0
 16 80 442 0 ?319 69 89 325 0 0 1 38 81 596 0 69 325 143 0 +17 113 326 327 328 4
0 3 326 0 1 3 .000536406685020059 .3725103640622585 ??2000000000002695e-22 .0065
4143317572209 .00404156735438122 -.001893509255115005 .0069783117168318 .0029482
33806173685 -.0035002 .00654143317572195 .002020610472109855 41 1 327 L200000000
0002695e-22 .00654143317572209 .00404156735438122 41 1 328 L-.0035002 .006541433
17572195 .002020610472109855 17 319 0 245 46 43 35 318 80 0 317 +15 245 559 0 46
 116 0 17 46 0 245 86 319 44 317 126 0 84 +17 43 0 245 319 86 39 91 25 0 318 +17
 318 0 204 24 38 39 319 80 0 92 -17 317 0 141 316 87 35 46 126 0 0 -17 87 0 141
 317 73 44 62 88 0 0 -16 126 353 0 ?46 195 88 122 0 0 1 17 73 0 141 87 314 60 56
 79 0 0 -17 56 0 65 67 66 54 73 79 0 74 +16 79 381 0 ?56 151 69 143 0 0 1 17 92
 0 76 91 320 39 24 9 0 0 -17 320 0 76 92 77 27 30 96 0 0 -17 77 0 76 320 68 52 5
9 94 0 0 -17 30 0 28 26 34 52 320 96 0 31 +17 59 0 256 74 31 57 77 94 0 67 +17 8
6 0 245 43 46 47 84 89 0 91 -17 84 0 82 62 49 44 86 89 0 87 +83 3 253 .752941176
470588 .752941176470588 .752941176470588 83 3 248 .752941176470588 .752941176470
588 .752941176470588 83 3 241 .752941176470588 .752941176470588 .752941176470588
 79 14 239 SWEntUnchanged82 1 230 89 15 224 207 0 186 220 234 17 186 0 224 186 1
86 0 329 184 0 0 +17 329 0 330 329 329 0 186 184 0 0 -15 330 100 0 329 216 0 15
 221 206 0 189 216 330 17 189 0 221 189 189 0 331 187 0 0 +17 331 0 332 331 331
 0 189 187 0 0 -15 332 95 0 331 212 0 15 217 205 0 192 212 332 17 192 0 217 192
 192 0 333 190 0 0 +17 333 0 334 333 333 0 192 190 0 0 -15 334 90 0 333 208 0 15
 213 204 0 194 208 334 17 194 0 213 194 194 0 335 193 0 0 +17 335 0 209 335 335
 0 194 193 0 0 -15 209 85 0 335 203 0 141 161 97 336 336 102 141 336 121 161 161
 102 40 2 146 0 1 2 .000536763547940368 .2663856432435615 ??-.0035002 .005479087
13279504 .00202061047210985 199999999999711e-21 .00547908713279503 .004041567354
38122 41 1 147 L-.0035002 .00547908713279504 .00202061047210985 41 1 148 L199999
999999711e-21 .00547908713279503 .00404156735438122 40 2 133 0 1 2 .000536763547
940369 .2663856432435615 ??2000000000033915e-22 .00547908713279504 -.00404156735
438122 -.0035002 .00547908713279503 -.00202061047210985 41 1 134 L20000000000339
15e-22 .00547908713279504 -.00404156735438122 41 1 135 L-.0035002 .0054790871327
9503 -.00202061047210985 40 2 129 0 1 2 .000536763547940369 .2663856432435615 ??
-200000000000105e-21 .00547908713279504 .00404156735438122 .0035002 .00547908713
279503 .00202061047210985 41 1 130 L-200000000000105e-21 .00547908713279504 .004
04156735438122 41 1 131 L.0035002 .00547908713279503 .00202061047210985 141 118
 16 337 337 106 141 337 122 118 118 106 141 117 81 338 338 113 141 338 143 117 1
17 113 141 112 81 339 340 17 141 339 6 341 112 17 141 340 101 112 342 17 141 342
 97 340 343 17 141 343 95 342 341 17 141 341 16 343 339 17 40 3 107 0 1 3 .00053
640668502006 .3725103640622585 ??-.0035002 .00654143317572209 -.0020206104721098
5 -.001606490744884995 .0069783117168318 -.003113944020317385 1999999999977205e-
22 .00654143317572195 -.004041567354381215 41 1 108 L-.0035002 .0065414331757220
9 -.00202061047210985 41 1 109 L1999999999977205e-22 .00654143317572195 -.004041
567354381215 40 3 103 0 1 3 .000536406685020059 .3725103640622585 ??.0035002 .00
654143317572209 .00202061047210985 .001606490744884995 .0069783117168318 .003113
944020317385 -199999999995334e-21 .00654143317572194 .004041567354381215 41 1 10
4 L.0035002 .00654143317572209 .00202061047210985 41 1 105 L-199999999995334e-21
 .00654143317572194 .004041567354381215 19 13 74 0 1 0 8 4 S0 40 3 19 0 1 3 .000
536406685020059 .3725103640622585 ??-199999999996983e-21 .00654143317572209 -.00
404156735438122 .00189350925511501 .0069783117168318 -.002948233806173685 .00350
02 .00654143317572195 -.002020610472109855 41 1 20 L-199999999996983e-21 .006541
43317572209 -.00404156735438122 41 1 21 L.0035002 .00654143317572195 -.002020610
472109855 74 4 CI16 index_map_offset0 0 1 dCCZ20 11 2 0 0 272 279 0 0 0 0 0 0 0
 0 0 0 0 0 0 0 0 0 0 0 1 0 
